<svg id="グループ_164" data-name="グループ 164" xmlns="http://www.w3.org/2000/svg" width="58" height="58" viewBox="0 0 58 58">
  <g id="楕円形_24" data-name="楕円形 24" fill="#fff" stroke="#263290" stroke-width="2">
    <circle cx="29" cy="29" r="29" stroke="none"/>
    <circle cx="29" cy="29" r="28" fill="none"/>
  </g>
  <g id="グループ_154" data-name="グループ 154" transform="translate(8.744 13.116)">
    <g id="グループ_152" data-name="グループ 152" transform="translate(18.463 0)">
      <path id="パス_761" data-name="パス 761" d="M668.282,218.467a.542.542,0,0,0-.749.164l-1.664,2.6-1.664-2.6a.542.542,0,1,0-.913.585l1.587,2.48h-.54a.542.542,0,0,0,0,1.084h.989v.511h-.989a.542.542,0,0,0,0,1.084h.989v1.495a.542.542,0,1,0,1.084,0v-1.495h.988a.542.542,0,0,0,0-1.084h-.988v-.511h.988a.542.542,0,0,0,0-1.084h-.54l1.587-2.48A.542.542,0,0,0,668.282,218.467Z" transform="translate(-658.547 -215.075)" fill="#263290"/>
      <path id="パス_762" data-name="パス 762" d="M561.131,155.388a7.322,7.322,0,1,1,7.322-7.322A7.33,7.33,0,0,1,561.131,155.388Zm0-13.579a6.257,6.257,0,1,0,6.257,6.257A6.264,6.264,0,0,0,561.131,141.809Z" transform="translate(-553.809 -140.744)" fill="#263290"/>
    </g>
    <path id="パス_763" data-name="パス 763" d="M275.314,451.449a2.133,2.133,0,0,1-.7,1.125c-.971.825-3.964,3.273-7.013,5.579-4.125,3.118-6.955,4.932-8.412,5.392a4.17,4.17,0,0,1-1.251.167c-1.777,0-4.433-.753-7.929-2.249-2.019-.865-4.008-1.857-5.351-2.6l-.233-.743-.237-.756a55.571,55.571,0,0,0,6.24,3.117c4.084,1.748,7.081,2.475,8.44,2.046,3.124-.986,13.2-9.192,15.057-10.767a1.09,1.09,0,0,0,.359-.563,1.151,1.151,0,0,0-.347-1.08,1.58,1.58,0,0,0-1.1-.582,1.106,1.106,0,0,0-.667.193l-.012.008-9.368,5.96a2.431,2.431,0,0,1-.224,2.152,2.665,2.665,0,0,1-2.313,1.382,3.289,3.289,0,0,1-1.3-.242l-.03-.015-7.848-4.083a.532.532,0,1,1,.491-.944l1.182.615,6.646,3.458a2.293,2.293,0,0,0,.868.146,1.613,1.613,0,0,0,1.389-.865,1.433,1.433,0,0,0,0-1.519c-.008-.012-.014-.024-.021-.036a2.391,2.391,0,0,0-.221-.315,3.2,3.2,0,0,0-.58-.545c-2.756-1.552-10.119-5.612-11.436-5.962a5.879,5.879,0,0,0-1.4-.135,11.934,11.934,0,0,0-2.551.284,6.168,6.168,0,0,0-3.325,1.728,2.619,2.619,0,0,0-.285.434c-.03.057-.057.114-.082.172a2.98,2.98,0,0,0-.245,1l-.32-1.02-.236-.752a3.73,3.73,0,0,1,.384-.554,4.2,4.2,0,0,1,.421-.437,7.774,7.774,0,0,1,3.456-1.606,10.793,10.793,0,0,1,4.457-.138c1.692.449,10.687,5.5,11.707,6.076l.036.022a4.3,4.3,0,0,1,.837.784l9.327-5.934a2.176,2.176,0,0,1,1.307-.37,2.617,2.617,0,0,1,1.836.931A2.181,2.181,0,0,1,275.314,451.449Z" transform="translate(-235.814 -434.647)" fill="#263290"/>
    <path id="パス_764" data-name="パス 764" d="M300.56,475.188a1.089,1.089,0,0,1-.359.563c-1.855,1.575-11.932,9.781-15.056,10.767-1.359.429-4.356-.3-8.44-2.046a55.571,55.571,0,0,1-6.24-3.117l-2.061-6.568a6.168,6.168,0,0,1,3.325-1.728,11.938,11.938,0,0,1,2.551-.284,5.881,5.881,0,0,1,1.4.135c1.317.35,8.679,4.41,11.436,5.962a3.2,3.2,0,0,1,.58.545,2.393,2.393,0,0,1,.221.315c.006.012.013.024.021.036a1.433,1.433,0,0,1,0,1.519,1.613,1.613,0,0,1-1.389.865,2.291,2.291,0,0,1-.868-.146l-6.646-3.458-1.182-.615a.532.532,0,1,0-.491.944l7.848,4.083.03.014a3.288,3.288,0,0,0,1.3.242,2.665,2.665,0,0,0,2.313-1.382,2.431,2.431,0,0,0,.224-2.152l9.368-5.96.012-.008a1.107,1.107,0,0,1,.667-.193,1.58,1.58,0,0,1,1.1.582A1.151,1.151,0,0,1,300.56,475.188Z" transform="translate(-262.095 -458.636)" fill="none"/>
    <g id="グループ_153" data-name="グループ 153" transform="translate(0 14.086)">
      <path id="パス_765" data-name="パス 765" d="M128.63,483.246l-4.016,1.261a.956.956,0,0,1-.284.043.95.95,0,0,1-.9-.664l-3.108-9.9a.949.949,0,0,1,.62-1.188l4.016-1.26a.949.949,0,0,1,1.188.621l.076.241a4.2,4.2,0,0,0-.421.437,3.73,3.73,0,0,0-.384.555l-.252-.8-3.793,1.19,3.038,9.679,3.793-1.19-.457-1.457-.319-1.018-.471-1.5-.982-3.129a2.98,2.98,0,0,1,.245-1c.025-.057.052-.115.082-.172a2.617,2.617,0,0,1,.285-.434l2.061,6.568.237.756.233.743.136.434A.949.949,0,0,1,128.63,483.246Z" transform="translate(-120.274 -471.492)" fill="#263290"/>
    </g>
  </g>
</svg>
